<svg width="93" height="24" viewBox="0 0 93 24" fill="none" xmlns="http://www.w3.org/2000/svg">
<path d="M4.86364 1.54545V19H0.125V1.54545H4.86364ZM11.8821 11.6364V19H7.17756V5.90909H11.6435V8.39773H11.7798C12.0639 7.56818 12.5639 6.91761 13.2798 6.44602C14.0014 5.97443 14.8423 5.73864 15.8026 5.73864C16.7287 5.73864 17.5327 5.9517 18.2145 6.37784C18.902 6.7983 19.4332 7.37784 19.8082 8.11648C20.1889 8.85511 20.3764 9.69886 20.3707 10.6477V19H15.6662V11.6364C15.6719 10.9886 15.5071 10.4801 15.1719 10.1108C14.8423 9.74148 14.3821 9.55682 13.7912 9.55682C13.4048 9.55682 13.0668 9.64205 12.777 9.8125C12.4929 9.97727 12.2741 10.2159 12.1207 10.5284C11.9673 10.8352 11.8878 11.2045 11.8821 11.6364ZM30.5 5.90909V9.31818H21.875V5.90909H30.5ZM23.5455 2.77273H28.25V14.7898C28.25 14.9716 28.2812 15.125 28.3438 15.25C28.4062 15.3693 28.5028 15.4602 28.6335 15.5227C28.7642 15.5795 28.9318 15.608 29.1364 15.608C29.2784 15.608 29.4432 15.5909 29.6307 15.5568C29.8239 15.5227 29.9659 15.4943 30.0568 15.4716L30.7386 18.7784C30.5284 18.8409 30.2273 18.9176 29.8352 19.0085C29.4489 19.0994 28.9886 19.1591 28.4545 19.1875C27.375 19.2443 26.4688 19.1335 25.7358 18.8551C25.0028 18.571 24.4517 18.125 24.0824 17.517C23.7131 16.9091 23.5341 16.1477 23.5455 15.233V2.77273ZM32.4197 19V5.90909H37.1243V19H32.4197ZM34.772 4.54545C34.1357 4.54545 33.5902 4.33523 33.1357 3.91477C32.6811 3.49432 32.4538 2.98864 32.4538 2.39773C32.4538 1.80682 32.6811 1.30114 33.1357 0.880681C33.5902 0.460227 34.1357 0.25 34.772 0.25C35.4141 0.25 35.9595 0.460227 36.4084 0.880681C36.8629 1.30114 37.0902 1.80682 37.0902 2.39773C37.0902 2.98864 36.8629 3.49432 36.4084 3.91477C35.9595 4.33523 35.4141 4.54545 34.772 4.54545Z" fill="#313131"/>
<path d="M39.4531 19V1.54545H44.1918V8.36364H50.4645V1.54545H55.2031V19H50.4645V12.1818H44.1918V19H39.4531ZM63.794 19.2386C62.3963 19.2386 61.1918 18.9716 60.1804 18.4375C59.1747 17.8977 58.3991 17.125 57.8537 16.1193C57.3139 15.108 57.044 13.8977 57.044 12.4886C57.044 11.1364 57.3168 9.95455 57.8622 8.94318C58.4077 7.93182 59.1776 7.14489 60.1719 6.58239C61.1662 6.01989 62.3395 5.73864 63.6918 5.73864C64.6804 5.73864 65.5753 5.89205 66.3764 6.19886C67.1776 6.50568 67.8622 6.9517 68.4304 7.53693C68.9986 8.11648 69.4361 8.82102 69.7429 9.65057C70.0497 10.4801 70.2031 11.4148 70.2031 12.4545V13.5455H58.5099V10.9545H65.8736C65.8679 10.5795 65.7713 10.25 65.5838 9.96591C65.402 9.67614 65.1548 9.4517 64.8423 9.29261C64.5355 9.12784 64.1861 9.04545 63.794 9.04545C63.4134 9.04545 63.0639 9.12784 62.7457 9.29261C62.4276 9.4517 62.1719 9.6733 61.9787 9.95739C61.7912 10.2415 61.6918 10.5739 61.6804 10.9545V13.75C61.6804 14.1705 61.7685 14.5455 61.9446 14.875C62.1207 15.2045 62.3736 15.4631 62.7031 15.6506C63.0327 15.8381 63.4304 15.9318 63.8963 15.9318C64.2202 15.9318 64.5156 15.8864 64.7827 15.7955C65.0554 15.7045 65.2884 15.5739 65.4815 15.4034C65.6747 15.2273 65.8168 15.017 65.9077 14.7727H70.2031C70.0554 15.6818 69.706 16.4716 69.1548 17.142C68.6037 17.8068 67.8736 18.3239 66.9645 18.6932C66.0611 19.0568 65.0043 19.2386 63.794 19.2386ZM76.8274 1.54545V19H72.1229V1.54545H76.8274ZM79.2244 23.9091V5.90909H83.8949V8.19318H83.9972C84.1676 7.75 84.4176 7.34375 84.7472 6.97443C85.0767 6.59943 85.4858 6.30114 85.9744 6.07954C86.4631 5.85227 87.0313 5.73864 87.679 5.73864C88.5426 5.73864 89.3636 5.96875 90.142 6.42898C90.9261 6.8892 91.5625 7.61364 92.0511 8.60227C92.5455 9.59091 92.7926 10.875 92.7926 12.4545C92.7926 13.9659 92.5568 15.2187 92.0852 16.2131C91.6193 17.2074 90.9943 17.9489 90.2102 18.4375C89.4318 18.9261 88.5767 19.1705 87.6449 19.1705C87.0312 19.1705 86.483 19.071 86 18.8722C85.5227 18.6676 85.1136 18.392 84.7727 18.0455C84.4375 17.6932 84.179 17.2955 83.9972 16.8523H83.929V23.9091H79.2244ZM83.8267 12.4545C83.8267 13.0909 83.9091 13.642 84.0739 14.108C84.2443 14.5682 84.483 14.9261 84.7898 15.1818C85.1023 15.4318 85.4744 15.5568 85.9062 15.5568C86.3381 15.5568 86.7045 15.4347 87.0057 15.1903C87.3125 14.9403 87.5455 14.5852 87.7045 14.125C87.8693 13.6591 87.9517 13.1023 87.9517 12.4545C87.9517 11.8068 87.8693 11.2528 87.7045 10.7926C87.5455 10.3267 87.3125 9.97159 87.0057 9.72727C86.7045 9.47727 86.3381 9.35227 85.9062 9.35227C85.4744 9.35227 85.1023 9.47727 84.7898 9.72727C84.483 9.97159 84.2443 10.3267 84.0739 10.7926C83.9091 11.2528 83.8267 11.8068 83.8267 12.4545Z" fill="#00B8DB"/>
</svg>
