<svg width="2923" height="600" viewBox="0 0 2923 600" fill="none" xmlns="http://www.w3.org/2000/svg">
<path d="M558.516 200.367C558.516 194.742 561.562 191.93 567.656 191.93H601.055C614.297 191.93 624.492 197.496 631.641 208.629L688.594 296.344L745.371 208.629C752.637 197.496 762.832 191.93 775.957 191.93H809.531C815.508 191.93 818.496 194.742 818.496 200.367C818.496 202.945 817.559 205.699 815.684 208.629L721.641 354V427.828C721.641 432.398 720 436.266 716.719 439.43C713.555 442.477 709.688 444 705.117 444H672.07C667.5 444 663.574 442.477 660.293 439.43C657.012 436.266 655.371 432.398 655.371 427.828V354L561.504 208.629C559.512 205.699 558.516 202.945 558.516 200.367ZM810.762 427.828L854.883 260.484C866.836 214.898 905.742 192.047 971.602 191.93H1066.35C1070.68 191.93 1074.26 193.57 1077.07 196.852C1080 200.133 1081.46 203.941 1081.46 208.277V427.828C1081.46 432.398 1079.82 436.266 1076.54 439.43C1073.26 442.477 1069.34 444 1064.77 444H1031.72C1026.91 444 1022.93 442.477 1019.77 439.43C1016.72 436.266 1015.2 432.281 1015.2 427.477V383.18H890.215L878.438 427.477C877.266 432.281 874.629 436.266 870.527 439.43C866.426 442.477 862.09 444 857.52 444H822.891C818.32 444 815.039 442.711 813.047 440.133C811.055 437.438 810.059 435.094 810.059 433.102C810.176 431.109 810.41 429.352 810.762 427.828ZM903.223 333.434H1015.2V241.676H965.098C953.848 241.676 944.004 244.898 935.566 251.344C927.246 257.672 921.621 266.227 918.691 277.008L903.223 333.434ZM1131.74 427.477V208.629C1131.74 204.059 1133.32 200.133 1136.48 196.852C1139.65 193.57 1143.52 191.93 1148.09 191.93H1199.77C1203.87 191.93 1208.2 193.57 1212.77 196.852C1217.34 200.133 1221.09 204.059 1224.02 208.629L1330.2 371.93V208.277C1330.2 203.707 1331.78 199.84 1334.94 196.676C1338.22 193.512 1342.15 191.93 1346.72 191.93H1376.95C1381.52 191.93 1385.39 193.512 1388.55 196.676C1391.84 199.84 1393.48 203.824 1393.48 208.629V427.477C1393.48 432.047 1391.84 435.973 1388.55 439.254C1385.39 442.418 1381.52 444 1376.95 444H1318.59C1314.02 444 1309.34 442.418 1304.53 439.254C1299.73 435.973 1295.92 432.047 1293.11 427.477L1195.9 276.656V427.477C1195.9 432.047 1194.26 435.973 1190.98 439.254C1187.81 442.418 1183.95 444 1179.38 444H1148.44C1143.87 444 1139.94 442.418 1136.66 439.254C1133.38 435.973 1131.74 432.047 1131.74 427.477ZM1423.18 427.828L1467.3 260.484C1479.26 214.898 1518.16 192.047 1584.02 191.93H1678.77C1683.11 191.93 1686.68 193.57 1689.49 196.852C1692.42 200.133 1693.89 203.941 1693.89 208.277V427.828C1693.89 432.398 1692.25 436.266 1688.96 439.43C1685.68 442.477 1681.76 444 1677.19 444H1644.14C1639.34 444 1635.35 442.477 1632.19 439.43C1629.14 436.266 1627.62 432.281 1627.62 427.477V383.18H1502.64L1490.86 427.477C1489.69 432.281 1487.05 436.266 1482.95 439.43C1478.85 442.477 1474.51 444 1469.94 444H1435.31C1430.74 444 1427.46 442.711 1425.47 440.133C1423.48 437.438 1422.48 435.094 1422.48 433.102C1422.6 431.109 1422.83 429.352 1423.18 427.828ZM1515.64 333.434H1627.62V241.676H1577.52C1566.27 241.676 1556.43 244.898 1547.99 251.344C1539.67 257.672 1534.04 266.227 1531.11 277.008L1515.64 333.434ZM1870.37 427.125V208.98C1870.37 204.176 1871.95 200.133 1875.12 196.852C1878.28 193.57 1882.15 191.93 1886.72 191.93H1958.26C1962.83 191.93 1967.17 193.57 1971.27 196.852C1975.37 200.133 1978.12 204.059 1979.53 208.629L2031.39 358.746L2083.24 208.629C2084.65 204.059 2087.4 200.133 2091.5 196.852C2095.61 193.57 2099.94 191.93 2104.51 191.93H2176.05C2180.62 191.93 2184.43 193.57 2187.48 196.852C2190.64 200.133 2192.23 204.176 2192.23 208.98V427.125C2192.23 431.93 2190.59 435.973 2187.3 439.254C2184.14 442.418 2180.27 444 2175.7 444H2144.06C2139.49 444 2135.57 442.418 2132.29 439.254C2129.12 435.973 2127.54 431.93 2127.54 427.125V255.387L2065.49 428.18C2063.85 432.516 2060.98 436.266 2056.88 439.43C2052.77 442.477 2048.44 444 2043.87 444H2018.73C2014.16 444 2009.82 442.477 2005.72 439.43C2001.74 436.266 1998.87 432.516 1997.11 428.18L1935.23 255.387V427.125C1935.23 431.93 1933.59 435.973 1930.31 439.254C1927.15 442.418 1923.28 444 1918.71 444H1887.07C1882.5 444 1878.57 442.418 1875.29 439.254C1872.01 435.973 1870.37 431.93 1870.37 427.125ZM2221.93 427.828L2266.05 260.484C2278.01 214.898 2316.91 192.047 2382.77 191.93H2477.52C2481.86 191.93 2485.43 193.57 2488.24 196.852C2491.17 200.133 2492.64 203.941 2492.64 208.277V427.828C2492.64 432.398 2491 436.266 2487.71 439.43C2484.43 442.477 2480.51 444 2475.94 444H2442.89C2438.09 444 2434.1 442.477 2430.94 439.43C2427.89 436.266 2426.37 432.281 2426.37 427.477V383.18H2301.39L2289.61 427.477C2288.44 432.281 2285.8 436.266 2281.7 439.43C2277.6 442.477 2273.26 444 2268.69 444H2234.06C2229.49 444 2226.21 442.711 2224.22 440.133C2222.23 437.438 2221.23 435.094 2221.23 433.102C2221.35 431.109 2221.58 429.352 2221.93 427.828ZM2314.39 333.434H2426.37V241.676H2376.27C2365.02 241.676 2355.18 244.898 2346.74 251.344C2338.42 257.672 2332.79 266.227 2329.86 277.008L2314.39 333.434ZM2803.77 436.266C2803.77 441.422 2800.72 444 2794.63 444H2754.38C2749.8 444 2744.88 442.418 2739.61 439.254C2734.34 435.973 2730.23 432.047 2727.3 427.477L2696.37 378.434C2688.98 366.48 2681.54 357.516 2674.04 351.539C2666.54 345.445 2657.52 342.398 2646.97 342.398H2609.18V427.828C2609.18 432.398 2607.54 436.266 2604.26 439.43C2601.09 442.477 2597.23 444 2592.66 444H2559.61C2555.04 444 2551.11 442.359 2547.83 439.078C2544.55 435.68 2542.91 431.695 2542.91 427.125V208.629C2542.91 204.059 2544.55 200.074 2547.83 196.676C2551.11 193.277 2555.04 191.578 2559.61 191.578H2592.66C2597.23 191.578 2601.09 193.277 2604.26 196.676C2607.54 200.074 2609.18 204.059 2609.18 208.629V292.828H2646.97C2657.29 292.828 2666.31 290.016 2674.04 284.391C2681.89 278.766 2689.34 269.684 2696.37 257.145L2723.61 208.629C2729.82 197.379 2738.26 191.695 2748.93 191.578H2789.53C2795.16 191.578 2797.97 194.039 2797.97 198.961C2797.97 201.656 2796.97 204.879 2794.98 208.629L2756.84 277.711C2751.33 287.789 2745.12 296.109 2738.2 302.672C2731.41 309.234 2722.5 313.863 2711.48 316.559C2719.22 318.199 2727.13 323.062 2735.21 331.148C2743.42 339.234 2750.62 348.023 2756.84 357.516L2800.78 427.477C2802.77 430.875 2803.77 433.805 2803.77 436.266ZM2829.08 427.828V208.629C2829.08 204.059 2830.72 200.133 2834 196.852C2837.29 193.57 2841.21 191.93 2845.78 191.93H2878.48C2883.28 191.93 2887.27 193.57 2890.43 196.852C2893.71 200.133 2895.35 204.059 2895.35 208.629V427.477C2895.35 432.047 2893.65 435.973 2890.25 439.254C2886.97 442.418 2883.05 444 2878.48 444H2845.78C2841.21 444 2837.29 442.477 2834 439.43C2830.72 436.266 2829.08 432.398 2829.08 427.828Z" fill="#2B2B76"/>
<path d="M352.37 464.316C348.093 491.393 336.907 514.065 311.714 527.698C297.641 535.313 283.043 540.082 266.558 539.999C182.427 539.577 98.2928 539.726 14.16 539.675C9.66278 539.672 5.16555 539.674 0 539.674C0 390.904 0 243.511 0 95.4038C17.1373 95.4038 33.7881 95.4038 51.9589 95.4038C51.9589 225.252 51.9589 355.016 51.9589 486.104C57.5402 486.104 61.6277 486.096 65.7152 486.105C131.49 486.259 197.266 486.431 263.041 486.558C282.866 486.597 292.456 479.537 299.632 460.584C301.369 461.415 302.376 462.459 302.288 463.4C301.006 477.106 307.61 482.505 320.305 478.119C321.927 477.559 323.911 477.138 325.502 477.542C336.911 480.442 341.09 477.487 344.276 466.017C345.182 462.755 349.562 460.457 352.513 458.531C352.575 461.002 352.472 462.659 352.37 464.316Z" fill="#FCAE06"/>
<path d="M300.501 313.041C300.437 305.52 297.072 302.887 289.21 302.99C252.896 303.465 216.571 303.135 180.253 303.387C161.727 303.515 151.683 313.278 151.297 331.533C150.928 349.027 151.217 366.534 151.217 385.516C165.789 385.516 179.062 385.86 192.281 385.172C194.447 385.06 197.882 380.55 198.137 377.83C198.912 369.554 198.418 361.159 198.418 352.114C216.444 352.114 233.454 352.114 251.299 352.114C251.299 380.638 251.299 409.023 251.299 438.104C200.922 438.104 150.989 438.104 99.8794 438.104C99.606 434.688 99.1285 431.439 99.1196 428.189C99.0252 393.781 98.8484 359.371 99.0054 324.964C99.1976 282.824 128.307 251.561 170.279 250.842C229.134 249.834 288.017 250.516 346.888 250.558C348.695 250.559 350.501 251.473 352.611 253.693C352.719 260.872 352.523 266.318 351.5 271.763C345.909 269.319 341.144 266.877 335.418 263.942C326.521 276.828 317.013 290.683 307.395 304.462C305.3 307.463 302.81 310.189 300.501 313.041Z" fill="#FCAE06"/>
<path d="M249.471 202.771C233.161 202.771 216.852 202.771 199.955 202.771C199.955 134.495 199.955 67.9385 199.955 0.0369437C215.793 0.0369437 230.957 -0.0701691 246.119 0.0803776C254.174 0.16038 252.145 6.51405 252.153 11.0298C252.255 71.3416 252.229 131.653 252.233 191.965C252.233 194.256 252.216 196.546 251.727 200.163C250.565 201.792 249.973 202.22 249.471 202.771Z" fill="#FCAE06"/>
<path d="M300.324 314.109C302.811 310.189 305.301 307.464 307.397 304.462C317.015 290.684 326.522 276.829 335.42 263.943C341.145 266.878 345.91 269.32 351.716 272.822C352.62 335.16 352.484 396.44 352.348 457.72C349.562 460.46 345.182 462.758 344.276 466.02C341.089 477.491 336.911 480.445 325.501 477.545C323.911 477.141 321.926 477.562 320.304 478.123C307.609 482.508 301.006 477.109 302.288 463.404C302.376 462.462 301.369 461.418 300.123 459.965C299.599 417.126 299.824 374.744 300.049 332.362C300.079 326.633 300.113 320.905 300.324 314.109Z" fill="#FCAE06"/>
<path d="M152.626 74.4789C152.379 112.66 151.789 150.843 152.122 189.019C152.207 198.858 150.253 203.535 139.682 206.259C126.253 209.72 113.697 216.569 99.884 222.324C99.884 159.734 99.884 97.0218 99.884 33.3213C116.658 33.3213 133.517 33.3213 152.004 33.3213C152.004 44.1265 152.004 54.7071 151.97 67.184C152.165 70.8798 152.396 72.6794 152.626 74.4789Z" fill="#FCAE06"/>
<path d="M300.027 150.107C300.026 116.939 300.026 84.9196 300.026 52.002C317.305 52.002 333.802 52.002 351.005 52.002C351.234 54.8048 351.609 57.3682 351.629 59.9344C351.967 103.442 352.065 146.953 352.728 190.455C352.862 199.195 350.767 202.951 341.3 202.425C328.067 201.689 314.762 202.239 300.028 202.239C300.028 184.579 300.028 167.917 300.027 150.107Z" fill="#FCAE06"/>
<path d="M250.039 202.679C249.971 202.218 250.563 201.79 251.745 201.264C251.905 201.773 251.36 202.289 250.039 202.679Z" fill="#EFF9F8"/>
</svg>
