<svg width="136" height="38" viewBox="0 0 136 38" fill="none" xmlns="http://www.w3.org/2000/svg">
<path d="M17.0507 13.1728C20.7293 12.151 24.1341 14.1891 24.8302 17.7226C25.4818 21.0303 22.9563 24.416 19.5874 24.7511C16.1525 25.0927 13.0667 22.3155 13.0477 18.7444C13.0333 16.0317 14.6059 14.328 17.0507 13.1728Z" fill="#FD635B"/>
<path d="M7.42023 32.9743C7.04433 33.4231 6.73057 33.7893 6.29614 34.2963C5.69524 33.6538 5.14835 33.069 4.47347 32.3473C5.70418 31.1735 6.8855 30.0467 8.37622 28.6249C6.6598 27.1664 4.99829 25.7546 3.27002 24.286C3.91295 23.5346 4.27905 23.1068 4.73879 22.5695C7.91516 25.4592 10.9994 28.265 14.0923 31.0787C15.075 30.1271 14.5945 29.4076 13.9793 28.8266C12.3829 27.319 10.7291 25.8721 9.02988 24.3393C9.69328 23.4829 10.0642 23.0042 10.562 22.3616C12.9727 24.7381 15.297 27.007 17.5816 29.3151C17.821 29.5571 17.9192 30.03 17.9241 30.3979C17.9544 32.6837 17.9394 34.9702 17.9394 37.7675C15.0401 35.1244 12.4161 32.7324 9.68119 30.2392C8.90141 31.1799 8.19188 32.0358 7.42023 32.9743Z" fill="#FD635B"/>
<path d="M25.7367 24.2792C26.367 23.7336 26.9198 23.2579 27.5932 22.6783C28.0319 23.0799 28.437 23.4509 28.9887 23.9559C27.8087 25.0849 26.7141 26.1104 25.6456 27.1625C24.9853 27.8127 24.3048 28.4583 23.7523 29.1952C23.4835 29.5538 23.4875 30.1168 23.368 30.5873C23.8013 30.4857 24.3129 30.4966 24.6522 30.2602C25.4497 29.7047 26.189 29.0573 26.9089 28.4002C28.9593 26.5287 30.9883 24.6339 33.1424 22.6403C33.5782 23.1547 33.9371 23.5783 34.3654 24.0839C32.795 25.6864 31.3003 27.2116 29.6643 28.881C30.9658 29.9765 32.2897 31.0909 33.7274 32.3011C33.0639 32.8775 32.4574 33.4044 31.7311 34.0354C30.5774 32.81 29.458 31.621 28.2434 30.3308C25.5228 32.756 22.8569 35.1325 19.9002 37.7682C19.9002 34.9873 19.8405 32.6193 19.9456 30.2586C19.9694 29.7238 20.4802 29.1258 20.9133 28.7092C22.4612 27.2204 24.0721 25.7971 25.7367 24.2792Z" fill="#FD635B"/>
<path d="M3.70564 17.8588C6.08297 17.8588 8.3142 17.8588 10.6173 17.8588C10.6173 18.6227 10.6173 19.2219 10.6173 19.9056C7.02665 19.9056 3.53642 19.9056 0.00500488 19.9056C0.00500488 19.2266 0.00500488 18.6179 0.00500488 17.8589C1.24257 17.8589 2.40105 17.8589 3.70564 17.8588Z" fill="#FD635B"/>
<path d="M31.1035 8.22157C29.1935 10.0301 27.3582 11.767 25.2952 13.7193C24.9402 13.1697 24.604 12.649 24.0635 11.8122C24.8638 11.0895 25.9068 10.1749 26.9183 9.22676C27.9123 8.29503 28.9652 7.40422 29.8275 6.35946C30.8941 5.06723 31.9426 5.15629 33.1827 6.02349C32.4935 6.75456 31.8358 7.45225 31.1035 8.22157Z" fill="#FD635B"/>
<path d="M31.2875 17.7923C33.5274 17.7925 35.6211 17.7925 37.81 17.7925C37.81 18.5245 37.81 19.1426 37.81 19.8833C34.3411 19.8833 30.8558 19.8833 27.296 19.8833C27.296 19.1703 27.296 18.5604 27.296 17.792C28.6276 17.792 29.8845 17.792 31.2875 17.7923Z" fill="#FD635B"/>
<path d="M10.3455 12.0302C8.51263 10.0736 6.75254 8.19045 4.84668 6.15134C5.07247 5.90355 5.51035 5.42301 5.82974 5.07251C8.49381 7.55116 11.1081 9.98348 13.8499 12.5345C13.2644 13.1069 12.8596 13.5026 12.0951 14.25C11.4828 13.4662 10.9505 12.7849 10.3455 12.0302Z" fill="#FD635B"/>
<path d="M18.0001 7.51459C18 4.94372 18 2.51743 18 0C18.7488 0 19.3584 0 20.0853 0C20.0853 3.42929 20.0853 6.85665 20.0853 10.3684C19.4477 10.3684 18.8344 10.3684 18.0002 10.3684C18.0002 9.4737 18.0002 8.56644 18.0001 7.51459Z" fill="#FD635B"/>
<path d="M48.1573 29V15.9091H50.1687V29H48.1573ZM49.18 13.7273C48.788 13.7273 48.4499 13.5938 48.1658 13.3267C47.8874 13.0597 47.7482 12.7386 47.7482 12.3636C47.7482 11.9886 47.8874 11.6676 48.1658 11.4006C48.4499 11.1335 48.788 11 49.18 11C49.5721 11 49.9073 11.1335 50.1857 11.4006C50.4698 11.6676 50.6119 11.9886 50.6119 12.3636C50.6119 12.7386 50.4698 13.0597 50.1857 13.3267C49.9073 13.5938 49.5721 13.7273 49.18 13.7273ZM55.864 21.125V29H53.8526V15.9091H55.7958V17.9545H55.9663C56.2731 17.2898 56.739 16.7557 57.364 16.3523C57.989 15.9432 58.7958 15.7386 59.7844 15.7386C60.6708 15.7386 61.4464 15.9205 62.1112 16.2841C62.7759 16.642 63.293 17.1875 63.6623 17.9205C64.0316 18.6477 64.2163 19.5682 64.2163 20.6818V29H62.2049V20.8182C62.2049 19.7898 61.9379 18.9886 61.4038 18.4148C60.8697 17.8352 60.1367 17.5455 59.2049 17.5455C58.5629 17.5455 57.989 17.6847 57.4833 17.9631C56.9833 18.2415 56.5884 18.6477 56.2987 19.1818C56.0089 19.7159 55.864 20.3636 55.864 21.125ZM73.5849 15.9091V17.6136H66.8008V15.9091H73.5849ZM68.7781 12.7727H70.7894V25.25C70.7894 25.8182 70.8718 26.2443 71.0366 26.5284C71.207 26.8068 71.4229 26.9943 71.6843 27.0909C71.9513 27.1818 72.2326 27.2273 72.5281 27.2273C72.7496 27.2273 72.9315 27.2159 73.0735 27.1932C73.2156 27.1648 73.3292 27.142 73.4144 27.125L73.8235 28.9318C73.6871 28.983 73.4968 29.0341 73.2525 29.0852C73.0082 29.142 72.6985 29.1705 72.3235 29.1705C71.7553 29.1705 71.1985 29.0483 70.6531 28.804C70.1133 28.5597 69.6644 28.1875 69.3065 27.6875C68.9542 27.1875 68.7781 26.5568 68.7781 25.7955V12.7727ZM76.6104 29V15.9091H78.6218V29H76.6104ZM77.6332 13.7273C77.2411 13.7273 76.9031 13.5938 76.619 13.3267C76.3406 13.0597 76.2013 12.7386 76.2013 12.3636C76.2013 11.9886 76.3406 11.6676 76.619 11.4006C76.9031 11.1335 77.2411 11 77.6332 11C78.0252 11 78.3604 11.1335 78.6388 11.4006C78.9229 11.6676 79.065 11.9886 79.065 12.3636C79.065 12.7386 78.9229 13.0597 78.6388 13.3267C78.3604 13.5938 78.0252 13.7273 77.6332 13.7273ZM91.0671 21.125V29H89.0558V11.5455H91.0671V17.9545H91.2376C91.5444 17.2784 92.0046 16.7415 92.6183 16.3438C93.2376 15.9403 94.0614 15.7386 95.0898 15.7386C95.9819 15.7386 96.7631 15.9176 97.4336 16.2756C98.104 16.6278 98.6239 17.1705 98.9933 17.9034C99.3683 18.6307 99.5558 19.5568 99.5558 20.6818V29H97.5444V20.8182C97.5444 19.7784 97.2745 18.9744 96.7347 18.4062C96.2006 17.8324 95.4592 17.5455 94.5103 17.5455C93.8512 17.5455 93.2603 17.6847 92.7376 17.9631C92.2205 18.2415 91.8114 18.6477 91.5103 19.1818C91.2148 19.7159 91.0671 20.3636 91.0671 21.125ZM108.724 29.2727C107.463 29.2727 106.375 28.9943 105.46 28.4375C104.551 27.875 103.849 27.0909 103.355 26.0852C102.866 25.0739 102.622 23.8977 102.622 22.5568C102.622 21.2159 102.866 20.0341 103.355 19.0114C103.849 17.983 104.537 17.1818 105.417 16.608C106.304 16.0284 107.338 15.7386 108.52 15.7386C109.201 15.7386 109.875 15.8523 110.539 16.0795C111.204 16.3068 111.809 16.6761 112.355 17.1875C112.9 17.6932 113.335 18.3636 113.659 19.1989C113.983 20.0341 114.145 21.0625 114.145 22.2841V23.1364H104.054V21.3977H112.099C112.099 20.6591 111.951 20 111.656 19.4205C111.366 18.8409 110.951 18.3835 110.412 18.0483C109.877 17.7131 109.247 17.5455 108.52 17.5455C107.718 17.5455 107.025 17.7443 106.44 18.142C105.86 18.5341 105.414 19.0455 105.102 19.6761C104.789 20.3068 104.633 20.983 104.633 21.7045V22.8636C104.633 23.8523 104.804 24.6903 105.145 25.3778C105.491 26.0597 105.971 26.5795 106.585 26.9375C107.199 27.2898 107.912 27.4659 108.724 27.4659C109.252 27.4659 109.73 27.392 110.156 27.2443C110.588 27.0909 110.96 26.8636 111.272 26.5625C111.585 26.2557 111.826 25.875 111.997 25.4205L113.94 25.9659C113.735 26.625 113.392 27.2045 112.909 27.7045C112.426 28.1989 111.829 28.5852 111.119 28.8636C110.409 29.1364 109.61 29.2727 108.724 29.2727ZM119.216 11.5455V29H117.204V11.5455H119.216ZM122.9 33.9091V15.9091H124.843V17.9886H125.081C125.229 17.7614 125.434 17.4716 125.695 17.1193C125.962 16.7614 126.343 16.4432 126.837 16.1648C127.337 15.8807 128.013 15.7386 128.865 15.7386C129.968 15.7386 130.939 16.0142 131.78 16.5653C132.621 17.1165 133.277 17.8977 133.749 18.9091C134.221 19.9205 134.456 21.1136 134.456 22.4886C134.456 23.875 134.221 25.0767 133.749 26.0938C133.277 27.1051 132.624 27.8892 131.789 28.446C130.953 28.9972 129.99 29.2727 128.9 29.2727C128.059 29.2727 127.385 29.1335 126.88 28.8551C126.374 28.571 125.985 28.25 125.712 27.892C125.439 27.5284 125.229 27.2273 125.081 26.9886H124.911V33.9091H122.9ZM124.877 22.4545C124.877 23.4432 125.022 24.3153 125.311 25.071C125.601 25.821 126.025 26.4091 126.581 26.8352C127.138 27.2557 127.82 27.4659 128.627 27.4659C129.468 27.4659 130.169 27.2443 130.732 26.8011C131.3 26.3523 131.726 25.75 132.01 24.9943C132.3 24.233 132.445 23.3864 132.445 22.4545C132.445 21.5341 132.303 20.7045 132.019 19.9659C131.74 19.2216 131.317 18.6335 130.749 18.2017C130.186 17.7642 129.479 17.5455 128.627 17.5455C127.809 17.5455 127.121 17.7528 126.564 18.1676C126.007 18.5767 125.587 19.1506 125.303 19.8892C125.019 20.6222 124.877 21.4773 124.877 22.4545Z" fill="#FF5A5A"/>
</svg>
