<svg width="135" height="37" viewBox="0 0 135 37" fill="none" xmlns="http://www.w3.org/2000/svg">
<rect x="0.907593" y="0.883118" width="36" height="36" fill="#FF5A5A"/>
<rect x="7.65759" y="7.63312" width="22.5" height="22.5" rx="11.25" fill="white"/>
<path d="M50.2393 29V15.9091H52.2507V29H50.2393ZM51.2621 13.7273C50.87 13.7273 50.532 13.5938 50.2479 13.3267C49.9695 13.0597 49.8303 12.7386 49.8303 12.3636C49.8303 11.9886 49.9695 11.6676 50.2479 11.4006C50.532 11.1335 50.87 11 51.2621 11C51.6541 11 51.9893 11.1335 52.2678 11.4006C52.5518 11.6676 52.6939 11.9886 52.6939 12.3636C52.6939 12.7386 52.5518 13.0597 52.2678 13.3267C51.9893 13.5938 51.6541 13.7273 51.2621 13.7273ZM57.946 21.125V29H55.9347V15.9091H57.8778V17.9545H58.0483C58.3551 17.2898 58.821 16.7557 59.446 16.3523C60.071 15.9432 60.8778 15.7386 61.8665 15.7386C62.7528 15.7386 63.5284 15.9205 64.1932 16.2841C64.858 16.642 65.375 17.1875 65.7443 17.9205C66.1136 18.6477 66.2983 19.5682 66.2983 20.6818V29H64.2869V20.8182C64.2869 19.7898 64.0199 18.9886 63.4858 18.4148C62.9517 17.8352 62.2188 17.5455 61.2869 17.5455C60.6449 17.5455 60.071 17.6847 59.5653 17.9631C59.0653 18.2415 58.6705 18.6477 58.3807 19.1818C58.0909 19.7159 57.946 20.3636 57.946 21.125ZM75.6669 15.9091V17.6136H68.8828V15.9091H75.6669ZM70.8601 12.7727H72.8714V25.25C72.8714 25.8182 72.9538 26.2443 73.1186 26.5284C73.2891 26.8068 73.505 26.9943 73.7663 27.0909C74.0334 27.1818 74.3146 27.2273 74.6101 27.2273C74.8317 27.2273 75.0135 27.2159 75.1555 27.1932C75.2976 27.1648 75.4112 27.142 75.4964 27.125L75.9055 28.9318C75.7692 28.983 75.5788 29.0341 75.3345 29.0852C75.0902 29.142 74.7805 29.1705 74.4055 29.1705C73.8374 29.1705 73.2805 29.0483 72.7351 28.804C72.1953 28.5597 71.7464 28.1875 71.3885 27.6875C71.0362 27.1875 70.8601 26.5568 70.8601 25.7955V12.7727ZM78.6925 29V15.9091H80.7038V29H78.6925ZM79.7152 13.7273C79.3232 13.7273 78.9851 13.5938 78.701 13.3267C78.4226 13.0597 78.2834 12.7386 78.2834 12.3636C78.2834 11.9886 78.4226 11.6676 78.701 11.4006C78.9851 11.1335 79.3232 11 79.7152 11C80.1072 11 80.4425 11.1335 80.7209 11.4006C81.005 11.6676 81.147 11.9886 81.147 12.3636C81.147 12.7386 81.005 13.0597 80.7209 13.3267C80.4425 13.5938 80.1072 13.7273 79.7152 13.7273ZM84.6605 29V11.5455H86.7741V19.3182H96.081V11.5455H98.1946V29H96.081V21.1932H86.7741V29H84.6605ZM107.642 29.2727C106.381 29.2727 105.293 28.9943 104.378 28.4375C103.469 27.875 102.767 27.0909 102.273 26.0852C101.784 25.0739 101.54 23.8977 101.54 22.5568C101.54 21.2159 101.784 20.0341 102.273 19.0114C102.767 17.983 103.455 17.1818 104.335 16.608C105.222 16.0284 106.256 15.7386 107.438 15.7386C108.119 15.7386 108.793 15.8523 109.457 16.0795C110.122 16.3068 110.727 16.6761 111.273 17.1875C111.818 17.6932 112.253 18.3636 112.577 19.1989C112.901 20.0341 113.062 21.0625 113.062 22.2841V23.1364H102.972V21.3977H111.017C111.017 20.6591 110.869 20 110.574 19.4205C110.284 18.8409 109.869 18.3835 109.33 18.0483C108.795 17.7131 108.165 17.5455 107.438 17.5455C106.636 17.5455 105.943 17.7443 105.358 18.142C104.778 18.5341 104.332 19.0455 104.02 19.6761C103.707 20.3068 103.551 20.983 103.551 21.7045V22.8636C103.551 23.8523 103.722 24.6903 104.062 25.3778C104.409 26.0597 104.889 26.5795 105.503 26.9375C106.116 27.2898 106.83 27.4659 107.642 27.4659C108.17 27.4659 108.648 27.392 109.074 27.2443C109.506 27.0909 109.878 26.8636 110.19 26.5625C110.503 26.2557 110.744 25.875 110.915 25.4205L112.858 25.9659C112.653 26.625 112.31 27.2045 111.827 27.7045C111.344 28.1989 110.747 28.5852 110.037 28.8636C109.327 29.1364 108.528 29.2727 107.642 29.2727ZM118.134 11.5455V29H116.122V11.5455H118.134ZM121.817 33.9091V15.9091H123.761V17.9886H123.999C124.147 17.7614 124.352 17.4716 124.613 17.1193C124.88 16.7614 125.261 16.4432 125.755 16.1648C126.255 15.8807 126.931 15.7386 127.783 15.7386C128.886 15.7386 129.857 16.0142 130.698 16.5653C131.539 17.1165 132.195 17.8977 132.667 18.9091C133.138 19.9205 133.374 21.1136 133.374 22.4886C133.374 23.875 133.138 25.0767 132.667 26.0938C132.195 27.1051 131.542 27.8892 130.707 28.446C129.871 28.9972 128.908 29.2727 127.817 29.2727C126.977 29.2727 126.303 29.1335 125.798 28.8551C125.292 28.571 124.903 28.25 124.63 27.892C124.357 27.5284 124.147 27.2273 123.999 26.9886H123.829V33.9091H121.817ZM123.795 22.4545C123.795 23.4432 123.94 24.3153 124.229 25.071C124.519 25.821 124.942 26.4091 125.499 26.8352C126.056 27.2557 126.738 27.4659 127.545 27.4659C128.386 27.4659 129.087 27.2443 129.65 26.8011C130.218 26.3523 130.644 25.75 130.928 24.9943C131.218 24.233 131.363 23.3864 131.363 22.4545C131.363 21.5341 131.221 20.7045 130.937 19.9659C130.658 19.2216 130.235 18.6335 129.667 18.2017C129.104 17.7642 128.397 17.5455 127.545 17.5455C126.727 17.5455 126.039 17.7528 125.482 18.1676C124.925 18.5767 124.505 19.1506 124.221 19.8892C123.937 20.6222 123.795 21.4773 123.795 22.4545Z" fill="#FF5A5A"/>
</svg>
